<?xml version="1.0" encoding="UTF-8"?>
<svg width="24px" height="24px" viewBox="0 0 24 24" version="1.1" xmlns="http://www.w3.org/2000/svg" xmlns:xlink="http://www.w3.org/1999/xlink">
    <title>IC Arrow Forward 24px</title>
    <g id="Main-Design" stroke="none" stroke-width="1" fill="none" fill-rule="evenodd">
        <g id="Home-Copy-6" transform="translate(-295.000000, -2048.000000)">
            <g id="Group-4" transform="translate(145.000000, 1651.000000)">
                <g id="Group-6-Copy-4">
                    <g id="Rectangle-Copy-13" transform="translate(30.000000, 291.000000)">
                        <g id="Button" transform="translate(0.000000, 101.000000)">
                            <g id="IC-Arrow-Forward-24px" transform="translate(120.000000, 5.000000)">
                                <polygon id="Path" points="0 0 24 0 24 24 0 24"></polygon>
                                <g id="Download-Cloud" transform="translate(4.000000, 5.000000)" stroke="#EE2F24" stroke-linecap="round" stroke-linejoin="round" stroke-width="1.41666667">
                                    <polyline id="Path" points="5.66666667 10.625 8.5 13.4583333 11.3333333 10.625"></polyline>
                                    <line x1="8.5" y1="7.08333333" x2="8.5" y2="13.4583333" id="Path"></line>
                                    <path d="M14.79,11.3970834 L14.79,11.3970834 C16.3900187,10.2719525 16.7749837,8.06278836 15.6498529,6.46276961 C14.9860574,5.51880211 13.9039883,4.95743377 12.75,4.95833336 L11.8575,4.95833336 L11.8575,4.95833335 C11.0796579,1.92692168 7.9916433,0.1000521 4.96023871,0.877894183 C1.92882705,1.65573627 0.101957464,4.74375085 0.879799548,7.77515543 C1.10301946,8.64508793 1.52981651,9.4494996 2.12499996,10.1220763" id="Path"></path>
                                </g>
                            </g>
                        </g>
                    </g>
                </g>
            </g>
        </g>
    </g>
</svg>